<mxfile host="app.diagrams.net" modified="2024-06-21T03:59:07.288Z" agent="Mozilla/5.0 (X11; Ubuntu; Linux x86_64; rv:127.0) Gecko/20100101 Firefox/127.0" etag="f4a9fud-eJg-vWr1RD5g" version="24.5.4" type="device">
  <diagram name="Page-1" id="yuPBU4UE_motjavbdSF-">
    <mxGraphModel dx="-320" dy="698" grid="1" gridSize="10" guides="1" tooltips="1" connect="1" arrows="1" fold="1" page="0" pageScale="1" pageWidth="1169" pageHeight="827" math="0" shadow="0">
      <root>
        <mxCell id="0" />
        <mxCell id="1" parent="0" />
        <mxCell id="W1fyiQ1UdQSS2ZDAop95-250" value="" style="rounded=0;whiteSpace=wrap;html=1;fillColor=none;" vertex="1" parent="1">
          <mxGeometry x="1080" y="-280" width="200" height="240" as="geometry" />
        </mxCell>
        <mxCell id="W1fyiQ1UdQSS2ZDAop95-252" value="&lt;font color=&quot;#0000ff&quot; style=&quot;font-size: 20px;&quot;&gt;Icache_SRAM&lt;/font&gt;" style="text;html=1;align=center;verticalAlign=middle;resizable=0;points=[];autosize=1;strokeColor=none;fillColor=none;" vertex="1" parent="1">
          <mxGeometry x="1075" y="-310" width="150" height="40" as="geometry" />
        </mxCell>
        <mxCell id="W1fyiQ1UdQSS2ZDAop95-253" value="" style="endArrow=classic;html=1;rounded=0;" edge="1" parent="1">
          <mxGeometry width="50" height="50" relative="1" as="geometry">
            <mxPoint x="1000" y="-240" as="sourcePoint" />
            <mxPoint x="1080" y="-240" as="targetPoint" />
          </mxGeometry>
        </mxCell>
        <mxCell id="W1fyiQ1UdQSS2ZDAop95-255" value="clk" style="edgeLabel;html=1;align=center;verticalAlign=middle;resizable=0;points=[];fontSize=15;" vertex="1" connectable="0" parent="W1fyiQ1UdQSS2ZDAop95-253">
          <mxGeometry x="0.1563" y="-2" relative="1" as="geometry">
            <mxPoint x="-66" y="-2" as="offset" />
          </mxGeometry>
        </mxCell>
        <mxCell id="W1fyiQ1UdQSS2ZDAop95-256" value="" style="endArrow=classic;html=1;rounded=0;" edge="1" parent="1">
          <mxGeometry width="50" height="50" relative="1" as="geometry">
            <mxPoint x="1000" y="-210" as="sourcePoint" />
            <mxPoint x="1080" y="-210" as="targetPoint" />
          </mxGeometry>
        </mxCell>
        <mxCell id="W1fyiQ1UdQSS2ZDAop95-257" value="rst" style="edgeLabel;html=1;align=center;verticalAlign=middle;resizable=0;points=[];fontSize=15;" vertex="1" connectable="0" parent="W1fyiQ1UdQSS2ZDAop95-256">
          <mxGeometry x="0.1563" y="-2" relative="1" as="geometry">
            <mxPoint x="-66" y="-2" as="offset" />
          </mxGeometry>
        </mxCell>
        <mxCell id="W1fyiQ1UdQSS2ZDAop95-259" value="" style="endArrow=classic;html=1;rounded=0;" edge="1" parent="1">
          <mxGeometry width="50" height="50" relative="1" as="geometry">
            <mxPoint x="1000" y="-180" as="sourcePoint" />
            <mxPoint x="1080" y="-180" as="targetPoint" />
          </mxGeometry>
        </mxCell>
        <mxCell id="W1fyiQ1UdQSS2ZDAop95-260" value="ren" style="edgeLabel;html=1;align=center;verticalAlign=middle;resizable=0;points=[];fontSize=15;" vertex="1" connectable="0" parent="W1fyiQ1UdQSS2ZDAop95-259">
          <mxGeometry x="0.1563" y="-2" relative="1" as="geometry">
            <mxPoint x="-66" y="-2" as="offset" />
          </mxGeometry>
        </mxCell>
        <mxCell id="W1fyiQ1UdQSS2ZDAop95-263" value="" style="endArrow=classic;html=1;rounded=0;" edge="1" parent="1">
          <mxGeometry width="50" height="50" relative="1" as="geometry">
            <mxPoint x="1000" y="-150" as="sourcePoint" />
            <mxPoint x="1080" y="-150" as="targetPoint" />
          </mxGeometry>
        </mxCell>
        <mxCell id="W1fyiQ1UdQSS2ZDAop95-264" value="memWen" style="edgeLabel;html=1;align=center;verticalAlign=middle;resizable=0;points=[];fontSize=15;" vertex="1" connectable="0" parent="W1fyiQ1UdQSS2ZDAop95-263">
          <mxGeometry x="0.1563" y="-2" relative="1" as="geometry">
            <mxPoint x="-86" y="-2" as="offset" />
          </mxGeometry>
        </mxCell>
        <mxCell id="W1fyiQ1UdQSS2ZDAop95-267" value="" style="endArrow=classic;html=1;rounded=0;" edge="1" parent="1">
          <mxGeometry width="50" height="50" relative="1" as="geometry">
            <mxPoint x="890" y="-110" as="sourcePoint" />
            <mxPoint x="1080" y="-109.99999999999999" as="targetPoint" />
          </mxGeometry>
        </mxCell>
        <mxCell id="W1fyiQ1UdQSS2ZDAop95-268" value="blockAddr" style="edgeLabel;html=1;align=center;verticalAlign=middle;resizable=0;points=[];fontSize=15;" vertex="1" connectable="0" parent="W1fyiQ1UdQSS2ZDAop95-267">
          <mxGeometry x="0.1563" y="-2" relative="1" as="geometry">
            <mxPoint x="-151" y="-2" as="offset" />
          </mxGeometry>
        </mxCell>
        <mxCell id="W1fyiQ1UdQSS2ZDAop95-269" value="" style="endArrow=classic;html=1;rounded=0;" edge="1" parent="1">
          <mxGeometry width="50" height="50" relative="1" as="geometry">
            <mxPoint x="930" y="-80" as="sourcePoint" />
            <mxPoint x="1080" y="-79.99999999999999" as="targetPoint" />
          </mxGeometry>
        </mxCell>
        <mxCell id="W1fyiQ1UdQSS2ZDAop95-270" value="dataIn" style="edgeLabel;html=1;align=center;verticalAlign=middle;resizable=0;points=[];fontSize=15;" vertex="1" connectable="0" parent="W1fyiQ1UdQSS2ZDAop95-269">
          <mxGeometry x="0.1563" y="-2" relative="1" as="geometry">
            <mxPoint x="-117" y="-2" as="offset" />
          </mxGeometry>
        </mxCell>
        <mxCell id="W1fyiQ1UdQSS2ZDAop95-271" value="" style="endArrow=classic;html=1;rounded=0;" edge="1" parent="1">
          <mxGeometry width="50" height="50" relative="1" as="geometry">
            <mxPoint x="1280" y="-200" as="sourcePoint" />
            <mxPoint x="1360" y="-200" as="targetPoint" />
          </mxGeometry>
        </mxCell>
        <mxCell id="W1fyiQ1UdQSS2ZDAop95-272" value="hit" style="edgeLabel;html=1;align=center;verticalAlign=middle;resizable=0;points=[];fontSize=15;" vertex="1" connectable="0" parent="W1fyiQ1UdQSS2ZDAop95-271">
          <mxGeometry x="0.1563" y="-2" relative="1" as="geometry">
            <mxPoint x="44" y="-2" as="offset" />
          </mxGeometry>
        </mxCell>
        <mxCell id="W1fyiQ1UdQSS2ZDAop95-275" value="" style="endArrow=classic;html=1;rounded=0;" edge="1" parent="1">
          <mxGeometry width="50" height="50" relative="1" as="geometry">
            <mxPoint x="1280" y="-160.24" as="sourcePoint" />
            <mxPoint x="1420" y="-160.24" as="targetPoint" />
          </mxGeometry>
        </mxCell>
        <mxCell id="W1fyiQ1UdQSS2ZDAop95-278" value="dataOut" style="edgeLabel;html=1;align=center;verticalAlign=middle;resizable=0;points=[];fontSize=15;" vertex="1" connectable="0" parent="1">
          <mxGeometry x="1450" y="-160" as="geometry" />
        </mxCell>
        <mxCell id="W1fyiQ1UdQSS2ZDAop95-281" value="" style="endArrow=none;html=1;rounded=0;" edge="1" parent="1">
          <mxGeometry width="50" height="50" relative="1" as="geometry">
            <mxPoint x="890" y="-100" as="sourcePoint" />
            <mxPoint x="910" y="-120" as="targetPoint" />
          </mxGeometry>
        </mxCell>
        <mxCell id="W1fyiQ1UdQSS2ZDAop95-282" value="" style="endArrow=none;html=1;rounded=0;" edge="1" parent="1">
          <mxGeometry width="50" height="50" relative="1" as="geometry">
            <mxPoint x="930" y="-70" as="sourcePoint" />
            <mxPoint x="950" y="-90" as="targetPoint" />
          </mxGeometry>
        </mxCell>
        <mxCell id="W1fyiQ1UdQSS2ZDAop95-285" value="`IBLOCK_SIZE_BITS" style="text;html=1;align=center;verticalAlign=middle;resizable=0;points=[];autosize=1;strokeColor=none;fillColor=none;" vertex="1" parent="1">
          <mxGeometry x="940" y="-100" width="140" height="30" as="geometry" />
        </mxCell>
        <mxCell id="W1fyiQ1UdQSS2ZDAop95-286" value="`IMEM_BLOCK_ADDR_SIZE" style="text;html=1;align=center;verticalAlign=middle;resizable=0;points=[];autosize=1;strokeColor=none;fillColor=none;" vertex="1" parent="1">
          <mxGeometry x="900" y="-130" width="180" height="30" as="geometry" />
        </mxCell>
        <mxCell id="W1fyiQ1UdQSS2ZDAop95-287" value="`IBLOCK_SIZE_BITS" style="text;html=1;align=center;verticalAlign=middle;resizable=0;points=[];autosize=1;strokeColor=none;fillColor=none;" vertex="1" parent="1">
          <mxGeometry x="1270" y="-180" width="140" height="30" as="geometry" />
        </mxCell>
      </root>
    </mxGraphModel>
  </diagram>
</mxfile>
